<?xml version="1.0" encoding="UTF-8"?>
<!DOCTYPE svg PUBLIC "-//W3C//DTD SVG 1.1//EN" "http://www.w3.org/Graphics/SVG/1.1/DTD/svg11.dtd">
<!-- Creator: CorelDRAW -->
<svg xmlns="http://www.w3.org/2000/svg" xml:space="preserve" width="210mm" height="297mm" version="1.1" style="shape-rendering:geometricPrecision; text-rendering:geometricPrecision; image-rendering:optimizeQuality; fill-rule:evenodd; clip-rule:evenodd"
viewBox="0 0 21000 29700"
 xmlns:xlink="http://www.w3.org/1999/xlink"
 xmlns:xodm="http://www.corel.com/coreldraw/odm/2003">
 <defs>
  <style type="text/css">
   <![CDATA[
    .str0 {stroke:#5FC2D4;stroke-width:423.33;stroke-miterlimit:22.9256}
    .str1 {stroke:#60C2D0;stroke-width:423.33;stroke-miterlimit:22.9256}
    .fil0 {fill:none}
   ]]>
  </style>
 </defs>
 <g id="Слой_x0020_1">
  <metadata id="CorelCorpID_0Corel-Layer"/>
  <ellipse class="fil0 str0" cx="10955.01" cy="14927.08" rx="9010.45" ry="8700.42"/>
  <line class="fil0 str1" x1="11180.63" y1="6223.62" x2="11393.74" y2= "23622.07" />
  <path class="fil0 str1" d="M11180.63 6223.62c2068.71,5799.48 2095.51,11598.96 213.11,17398.45"/>
  <path class="fil0 str1" d="M11180.63 6223.62c3860.49,6225.79 3878.55,12019.32 213.11,17398.45"/>
  <path class="fil0 str1" d="M11180.63 6223.62c5588.69,5930.76 5537.04,11727.32 213.11,17398.45"/>
  <path class="fil0 str1" d="M11180.63 6223.62c7650.67,5882.85 7614.29,11681.15 213.11,17398.45"/>
  <path class="fil0 str1" d="M11180.63 6223.62c8992.65,4804.62 9376.74,11206.1 213.11,17398.45"/>
  <path class="fil0 str1" d="M11180.63 6223.62c999.21,482.89 1497.82,536.03 2489.98,987.78 510.6,232.48 1268.68,453.87 2048.89,1137.82 5722.9,5016.86 4223.78,11652.76 -4325.76,15272.85"/>
  <path class="fil0 str1" d="M11180.63 6223.62c-1924.98,6031.58 -1907.09,11837.24 213.11,17398.45"/>
  <path class="fil0 str1" d="M11180.63 6223.62c-3829.05,5793.84 -3766.01,11593.31 213.11,17398.45"/>
  <path class="fil0 str1" d="M11180.63 6223.62c-5893.47,5934.45 -5747.29,11732.84 213.11,17398.45"/>
  <path class="fil0 str1" d="M11180.63 6223.62c-7903.9,5984.78 -7593.36,11778.69 213.11,17398.45"/>
  <path class="fil0 str1" d="M11180.63 6223.62c-883.37,526.03 -1681.62,383.77 -2396.86,913.09 -6475.79,4792.5 -6148.42,10363.92 -605.2,14894.48 855.72,699.39 2129.85,888.37 3215.17,1590.88"/>
  <path class="fil0 str1" d="M11180.63 6223.62c-11143.59,2841.94 -11202.33,15072.73 213.11,17398.45"/>
  <line class="fil0 str1" x1="1945.17" y1="15029.37" x2="19986.39" y2= "14816.26" />
  <path class="fil0 str1" d="M1945.17 15029.37c6013.74,-71.04 12027.48,-142.07 18041.22,-213.11"/>
  <path class="fil0 str1" d="M1945.77 13810.27c6013.74,-71.04 12027.48,-142.07 18041.22,-213.11"/>
  <path class="fil0 str1" d="M2289.51 12539.03c5766.02,-71.04 11532.05,-142.07 17298.07,-213.11"/>
  <path class="fil0 str1" d="M2715.17 11404.26c5459.88,-71.04 10919.77,-142.07 16379.65,-213.11"/>
  <path class="fil0 str1" d="M3429.86 10131.24c4973.41,-71.04 9946.84,-142.07 14920.25,-213.11"/>
  <path class="fil0 str1" d="M4275.35 8959.74c4360.72,-71.04 8721.46,-142.07 13082.18,-213.11"/>
  <path class="fil0 str1" d="M5727.05 7794.72c3402.14,-71.04 6804.28,-142.07 10206.42,-213.11"/>
  <path class="fil0 str1" d="M1996.32 16383.76c6013.74,-71.04 12027.48,-142.07 18041.22,-213.11"/>
  <path class="fil0 str1" d="M2513.51 17824.82c5670.24,-71.04 11340.49,-142.07 17010.73,-213.11"/>
  <path class="fil0 str1" d="M3043.93 19097.78c5308.48,-71.04 10616.98,-142.07 15925.46,-213.11"/>
  <path class="fil0 str1" d="M3854.06 20435.38c4738.27,-71.04 9476.54,-142.07 14214.81,-213.11"/>
  <path class="fil0 str1" d="M5127.87 21612.8c3920.62,-71.04 7841.25,-142.07 11761.87,-213.11"/>
  <path class="fil0 str1" d="M6252.95 22410.93c3163.35,-71.04 6326.71,-142.07 9490.06,-213.11"/>
 </g>
</svg>
